<svg xmlns="http://www.w3.org/2000/svg" xmlns:xlink="http://www.w3.org/1999/xlink" width="314" zoomAndPan="magnify" viewBox="37 98 314 175" height="175" preserveAspectRatio="xMidYMid meet" version="1.0"><defs><g/><clipPath id="c742d10417"><path d="M 39.039062 100.34375 L 331.539062 100.34375 L 331.539062 248.09375 L 39.039062 248.09375 Z M 39.039062 100.34375 " clip-rule="nonzero"/></clipPath><clipPath id="acfa2a906b"><path d="M 0.121094 0.425781 L 292.539062 0.425781 L 292.539062 148.011719 L 0.121094 148.011719 Z M 0.121094 0.425781 " clip-rule="nonzero"/></clipPath><clipPath id="430a029a14"><rect x="0" width="293" y="0" height="149"/></clipPath></defs><g clip-path="url(#c742d10417)"><g transform="matrix(1, 0, 0, 1, 39, 100)"><g clip-path="url(#430a029a14)"><path fill="#ffffff" d="M 104.710938 71.378906 L 92.550781 71.378906 L 92.550781 59.214844 L 104.710938 59.214844 L 104.710938 71.378906 " fill-opacity="1" fill-rule="nonzero"/><path fill="#ffffff" d="M 122.550781 71.378906 L 110.390625 71.378906 L 110.390625 59.214844 L 122.550781 59.214844 L 122.550781 71.378906 " fill-opacity="1" fill-rule="nonzero"/><path fill="#ffffff" d="M 104.710938 77.054688 L 104.710938 89.21875 L 92.550781 89.21875 L 92.550781 77.054688 L 104.710938 77.054688 " fill-opacity="1" fill-rule="nonzero"/><path fill="#ffffff" d="M 122.550781 77.054688 L 122.550781 89.21875 L 110.390625 89.21875 L 110.390625 77.054688 L 122.550781 77.054688 " fill-opacity="1" fill-rule="nonzero"/><g clip-path="url(#acfa2a906b)"><path fill="#ffffff" d="M 43.757812 51.308594 L 43.757812 19.761719 L 59.113281 19.761719 L 59.113281 39.058594 L 107.550781 0.421875 L 292.621094 148.011719 L 252.976562 148.011719 L 107.550781 17.597656 L 31.070312 86.183594 L 0.03125 86.183594 L 43.757812 51.308594 " fill-opacity="1" fill-rule="nonzero"/></g></g></g></g><g fill="#ffffff" fill-opacity="1"><g transform="translate(41.763316, 247.142225)"><g><path d="M 24.875 -57.390625 C 27.925781 -57.390625 30.910156 -56.945312 33.828125 -56.0625 C 36.742188 -55.175781 38.90625 -54.300781 40.3125 -53.4375 L 42.359375 -52.0625 L 37.171875 -41.8125 C 36.765625 -42.09375 36.195312 -42.445312 35.46875 -42.875 C 34.738281 -43.3125 33.367188 -43.894531 31.359375 -44.625 C 29.359375 -45.351562 27.492188 -45.71875 25.765625 -45.71875 C 23.617188 -45.71875 21.960938 -45.257812 20.796875 -44.34375 C 19.640625 -43.4375 19.0625 -42.207031 19.0625 -40.65625 C 19.0625 -39.882812 19.332031 -39.164062 19.875 -38.5 C 20.425781 -37.84375 21.363281 -37.132812 22.6875 -36.375 C 24.007812 -35.625 25.171875 -35.019531 26.171875 -34.5625 C 27.171875 -34.113281 28.71875 -33.4375 30.8125 -32.53125 C 34.457031 -30.976562 37.566406 -28.867188 40.140625 -26.203125 C 42.710938 -23.535156 44 -20.519531 44 -17.15625 C 44 -13.914062 43.414062 -11.085938 42.25 -8.671875 C 41.09375 -6.265625 39.5 -4.375 37.46875 -3 C 35.445312 -1.632812 33.207031 -0.625 30.75 0.03125 C 28.289062 0.695312 25.625 1.03125 22.75 1.03125 C 20.289062 1.03125 17.875 0.773438 15.5 0.265625 C 13.132812 -0.234375 11.15625 -0.859375 9.5625 -1.609375 C 7.96875 -2.359375 6.53125 -3.097656 5.25 -3.828125 C 3.976562 -4.554688 3.046875 -5.171875 2.453125 -5.671875 L 1.578125 -6.421875 L 8 -17.21875 C 8.539062 -16.757812 9.289062 -16.175781 10.25 -15.46875 C 11.207031 -14.769531 12.90625 -13.828125 15.34375 -12.640625 C 17.78125 -11.453125 19.929688 -10.859375 21.796875 -10.859375 C 27.210938 -10.859375 29.921875 -12.707031 29.921875 -16.40625 C 29.921875 -17.175781 29.726562 -17.890625 29.34375 -18.546875 C 28.957031 -19.210938 28.273438 -19.875 27.296875 -20.53125 C 26.316406 -21.1875 25.453125 -21.707031 24.703125 -22.09375 C 23.953125 -22.488281 22.722656 -23.082031 21.015625 -23.875 C 19.304688 -24.675781 18.039062 -25.28125 17.21875 -25.6875 C 13.800781 -27.375 11.15625 -29.476562 9.28125 -32 C 7.414062 -34.53125 6.484375 -37.253906 6.484375 -40.171875 C 6.484375 -45.234375 8.351562 -49.367188 12.09375 -52.578125 C 15.832031 -55.785156 20.09375 -57.390625 24.875 -57.390625 Z M 24.875 -57.390625 "/></g></g></g><g fill="#ffffff" fill-opacity="1"><g transform="translate(81.866569, 247.142225)"><g><path d="M 40.171875 -30.703125 C 43.453125 -27.128906 45.09375 -22.742188 45.09375 -17.546875 C 45.09375 -12.359375 43.453125 -7.960938 40.171875 -4.359375 C 36.890625 -0.765625 32.722656 1.03125 27.671875 1.03125 C 23.023438 1.03125 19.195312 -0.425781 16.1875 -3.34375 L 16.1875 17.765625 L 4.09375 17.765625 L 4.09375 -35.046875 L 16.0625 -35.046875 L 16.0625 -31.09375 L 16.1875 -31.09375 C 19.195312 -34.414062 23.023438 -36.078125 27.671875 -36.078125 C 32.722656 -36.078125 36.890625 -34.285156 40.171875 -30.703125 Z M 29.890625 -11.609375 C 31.460938 -13.160156 32.25 -15.144531 32.25 -17.5625 C 32.25 -19.976562 31.492188 -21.945312 29.984375 -23.46875 C 28.484375 -25 26.503906 -25.765625 24.046875 -25.765625 C 21.679688 -25.765625 19.734375 -24.988281 18.203125 -23.4375 C 16.679688 -21.882812 15.921875 -19.925781 15.921875 -17.5625 C 15.921875 -15.144531 16.707031 -13.160156 18.28125 -11.609375 C 19.851562 -10.066406 21.773438 -9.296875 24.046875 -9.296875 C 26.367188 -9.296875 28.316406 -10.066406 29.890625 -11.609375 Z M 29.890625 -11.609375 "/></g></g></g><g fill="#ffffff" fill-opacity="1"><g transform="translate(122.721345, 247.142225)"><g><path d="M 7.40625 -4.15625 C 3.519531 -7.625 1.578125 -12.066406 1.578125 -17.484375 C 1.578125 -22.910156 3.601562 -27.363281 7.65625 -30.84375 C 11.707031 -34.332031 16.71875 -36.078125 22.6875 -36.078125 C 28.5625 -36.078125 33.515625 -34.320312 37.546875 -30.8125 C 41.578125 -27.3125 43.59375 -22.867188 43.59375 -17.484375 C 43.59375 -12.109375 41.617188 -7.675781 37.671875 -4.1875 C 33.734375 -0.707031 28.738281 1.03125 22.6875 1.03125 C 16.394531 1.03125 11.300781 -0.695312 7.40625 -4.15625 Z M 16.765625 -23.4375 C 15.203125 -21.882812 14.421875 -19.898438 14.421875 -17.484375 C 14.421875 -15.078125 15.171875 -13.109375 16.671875 -11.578125 C 18.171875 -10.054688 20.148438 -9.296875 22.609375 -9.296875 C 24.984375 -9.296875 26.929688 -10.066406 28.453125 -11.609375 C 29.984375 -13.160156 30.75 -15.117188 30.75 -17.484375 C 30.75 -19.898438 29.960938 -21.882812 28.390625 -23.4375 C 26.816406 -24.988281 24.890625 -25.765625 22.609375 -25.765625 C 20.285156 -25.765625 18.335938 -24.988281 16.765625 -23.4375 Z M 16.765625 -23.4375 "/></g></g></g><g fill="#ffffff" fill-opacity="1"><g transform="translate(162.073066, 247.142225)"><g><path d="M 44.140625 -35.046875 L 27.46875 -18.3125 L 45.78125 0 L 30.203125 0 L 16.1875 -14 L 16.1875 0 L 4.09375 0 L 4.09375 -58.765625 L 16.1875 -58.765625 L 16.1875 -22.828125 L 28.421875 -35.046875 Z M 44.140625 -35.046875 "/></g></g></g><g fill="#ffffff" fill-opacity="1"><g transform="translate(200.399991, 247.142225)"><g><path d="M 7.40625 -4.15625 C 3.519531 -7.625 1.578125 -12.066406 1.578125 -17.484375 C 1.578125 -22.910156 3.601562 -27.363281 7.65625 -30.84375 C 11.707031 -34.332031 16.71875 -36.078125 22.6875 -36.078125 C 28.5625 -36.078125 33.515625 -34.320312 37.546875 -30.8125 C 41.578125 -27.3125 43.59375 -22.867188 43.59375 -17.484375 C 43.59375 -12.109375 41.617188 -7.675781 37.671875 -4.1875 C 33.734375 -0.707031 28.738281 1.03125 22.6875 1.03125 C 16.394531 1.03125 11.300781 -0.695312 7.40625 -4.15625 Z M 16.765625 -23.4375 C 15.203125 -21.882812 14.421875 -19.898438 14.421875 -17.484375 C 14.421875 -15.078125 15.171875 -13.109375 16.671875 -11.578125 C 18.171875 -10.054688 20.148438 -9.296875 22.609375 -9.296875 C 24.984375 -9.296875 26.929688 -10.066406 28.453125 -11.609375 C 29.984375 -13.160156 30.75 -15.117188 30.75 -17.484375 C 30.75 -19.898438 29.960938 -21.882812 28.390625 -23.4375 C 26.816406 -24.988281 24.890625 -25.765625 22.609375 -25.765625 C 20.285156 -25.765625 18.335938 -24.988281 16.765625 -23.4375 Z M 16.765625 -23.4375 "/></g></g></g><g fill="#ffffff" fill-opacity="1"><g transform="translate(105.706418, 270.358458)"><g><path d="M 5.703125 0.21875 C 4.742188 0.21875 3.914062 0.0546875 3.21875 -0.265625 C 2.519531 -0.585938 1.976562 -1.039062 1.59375 -1.625 C 1.21875 -2.207031 1.023438 -2.882812 1.015625 -3.65625 L 2.515625 -3.65625 C 2.535156 -2.894531 2.835938 -2.296875 3.421875 -1.859375 C 4.015625 -1.421875 4.773438 -1.203125 5.703125 -1.203125 C 6.535156 -1.203125 7.195312 -1.363281 7.6875 -1.6875 C 8.1875 -2.019531 8.4375 -2.484375 8.4375 -3.078125 C 8.4375 -3.628906 8.195312 -4.070312 7.71875 -4.40625 C 7.25 -4.75 6.472656 -5.046875 5.390625 -5.296875 C 3.929688 -5.640625 2.859375 -6.085938 2.171875 -6.640625 C 1.492188 -7.191406 1.15625 -7.925781 1.15625 -8.84375 C 1.15625 -9.851562 1.535156 -10.648438 2.296875 -11.234375 C 3.066406 -11.828125 4.101562 -12.125 5.40625 -12.125 C 6.75 -12.125 7.804688 -11.789062 8.578125 -11.125 C 9.359375 -10.457031 9.753906 -9.546875 9.765625 -8.390625 L 8.28125 -8.390625 C 8.269531 -9.097656 8.003906 -9.660156 7.484375 -10.078125 C 6.972656 -10.492188 6.28125 -10.703125 5.40625 -10.703125 C 4.5625 -10.703125 3.894531 -10.535156 3.40625 -10.203125 C 2.925781 -9.867188 2.6875 -9.414062 2.6875 -8.84375 C 2.6875 -8.351562 2.910156 -7.941406 3.359375 -7.609375 C 3.804688 -7.273438 4.609375 -6.96875 5.765625 -6.6875 C 7.285156 -6.3125 8.367188 -5.84375 9.015625 -5.28125 C 9.660156 -4.71875 9.984375 -4 9.984375 -3.125 C 9.984375 -2.09375 9.59375 -1.273438 8.8125 -0.671875 C 8.039062 -0.078125 7.003906 0.21875 5.703125 0.21875 Z M 5.703125 0.21875 "/></g></g></g><g fill="#ffffff" fill-opacity="1"><g transform="translate(122.672843, 270.358458)"><g><path d="M 1.734375 0 L 1.734375 -11.90625 L 8.96875 -11.90625 L 8.96875 -10.515625 L 3.234375 -10.515625 L 3.234375 -6.75 L 8.546875 -6.75 L 8.546875 -5.375 L 3.234375 -5.375 L 3.234375 -1.390625 L 9.15625 -1.390625 L 9.15625 0 Z M 1.734375 0 "/></g></g></g><g fill="#ffffff" fill-opacity="1"><g transform="translate(138.890585, 270.358458)"><g><path d="M 1.734375 0 L 1.734375 -11.90625 L 6.28125 -11.90625 C 7.101562 -11.90625 7.820312 -11.75 8.4375 -11.4375 C 9.050781 -11.125 9.523438 -10.6875 9.859375 -10.125 C 10.203125 -9.5625 10.375 -8.878906 10.375 -8.078125 C 10.375 -7.117188 10.125 -6.320312 9.625 -5.6875 C 9.125 -5.0625 8.441406 -4.640625 7.578125 -4.421875 L 10.5625 0 L 8.765625 0 L 5.859375 -4.265625 L 3.234375 -4.265625 L 3.234375 0 Z M 3.234375 -5.703125 L 6.109375 -5.703125 C 6.984375 -5.703125 7.65625 -5.90625 8.125 -6.3125 C 8.601562 -6.726562 8.84375 -7.316406 8.84375 -8.078125 C 8.84375 -8.835938 8.601562 -9.425781 8.125 -9.84375 C 7.65625 -10.269531 6.984375 -10.484375 6.109375 -10.484375 L 3.234375 -10.484375 Z M 3.234375 -5.703125 "/></g></g></g><g fill="#ffffff" fill-opacity="1"><g transform="translate(156.435544, 270.358458)"><g><path d="M 5.03125 0 L 0.296875 -11.90625 L 1.890625 -11.90625 L 3.859375 -6.890625 L 5.734375 -2.15625 L 7.59375 -6.890625 L 9.578125 -11.90625 L 11.15625 -11.90625 L 6.4375 0 Z M 5.03125 0 "/></g></g></g><g fill="#ffffff" fill-opacity="1"><g transform="translate(173.844376, 270.358458)"><g><path d="M 1.734375 0 L 1.734375 -11.90625 L 3.234375 -11.90625 L 3.234375 0 Z M 1.734375 0 "/></g></g></g><g fill="#ffffff" fill-opacity="1"><g transform="translate(184.770267, 270.358458)"><g><path d="M 7.015625 0.21875 C 6.140625 0.21875 5.332031 0.0664062 4.59375 -0.234375 C 3.851562 -0.546875 3.210938 -0.972656 2.671875 -1.515625 C 2.140625 -2.066406 1.722656 -2.71875 1.421875 -3.46875 C 1.128906 -4.226562 0.984375 -5.054688 0.984375 -5.953125 C 0.984375 -6.847656 1.128906 -7.671875 1.421875 -8.421875 C 1.722656 -9.179688 2.140625 -9.835938 2.671875 -10.390625 C 3.210938 -10.941406 3.851562 -11.367188 4.59375 -11.671875 C 5.332031 -11.972656 6.140625 -12.125 7.015625 -12.125 C 7.953125 -12.125 8.8125 -11.953125 9.59375 -11.609375 C 10.382812 -11.265625 11.0625 -10.769531 11.625 -10.125 C 12.1875 -9.488281 12.597656 -8.734375 12.859375 -7.859375 L 11.265625 -7.859375 C 10.960938 -8.722656 10.429688 -9.398438 9.671875 -9.890625 C 8.921875 -10.390625 8.050781 -10.640625 7.0625 -10.640625 C 6.175781 -10.640625 5.390625 -10.4375 4.703125 -10.03125 C 4.023438 -9.632812 3.488281 -9.082031 3.09375 -8.375 C 2.707031 -7.675781 2.515625 -6.867188 2.515625 -5.953125 C 2.515625 -5.035156 2.707031 -4.222656 3.09375 -3.515625 C 3.488281 -2.816406 4.023438 -2.269531 4.703125 -1.875 C 5.390625 -1.476562 6.175781 -1.28125 7.0625 -1.28125 C 8.070312 -1.28125 8.96875 -1.539062 9.75 -2.0625 C 10.53125 -2.582031 11.078125 -3.289062 11.390625 -4.1875 L 12.96875 -4.1875 C 12.726562 -3.300781 12.320312 -2.53125 11.75 -1.875 C 11.175781 -1.21875 10.484375 -0.703125 9.671875 -0.328125 C 8.859375 0.0351562 7.972656 0.21875 7.015625 0.21875 Z M 7.015625 0.21875 "/></g></g></g><g fill="#ffffff" fill-opacity="1"><g transform="translate(204.612329, 270.358458)"><g><path d="M 1.734375 0 L 1.734375 -11.90625 L 8.96875 -11.90625 L 8.96875 -10.515625 L 3.234375 -10.515625 L 3.234375 -6.75 L 8.546875 -6.75 L 8.546875 -5.375 L 3.234375 -5.375 L 3.234375 -1.390625 L 9.15625 -1.390625 L 9.15625 0 Z M 1.734375 0 "/></g></g></g><g fill="#ffffff" fill-opacity="1"><g transform="translate(220.830071, 270.358458)"><g/></g></g><g fill="#ffffff" fill-opacity="1"><g transform="translate(231.007278, 270.358458)"><g><path d="M 7.015625 0.21875 C 6.140625 0.21875 5.332031 0.0664062 4.59375 -0.234375 C 3.851562 -0.546875 3.210938 -0.972656 2.671875 -1.515625 C 2.140625 -2.066406 1.722656 -2.71875 1.421875 -3.46875 C 1.128906 -4.226562 0.984375 -5.054688 0.984375 -5.953125 C 0.984375 -6.847656 1.128906 -7.671875 1.421875 -8.421875 C 1.722656 -9.179688 2.140625 -9.835938 2.671875 -10.390625 C 3.210938 -10.941406 3.851562 -11.367188 4.59375 -11.671875 C 5.332031 -11.972656 6.140625 -12.125 7.015625 -12.125 C 7.953125 -12.125 8.8125 -11.953125 9.59375 -11.609375 C 10.382812 -11.265625 11.0625 -10.769531 11.625 -10.125 C 12.1875 -9.488281 12.597656 -8.734375 12.859375 -7.859375 L 11.265625 -7.859375 C 10.960938 -8.722656 10.429688 -9.398438 9.671875 -9.890625 C 8.921875 -10.390625 8.050781 -10.640625 7.0625 -10.640625 C 6.175781 -10.640625 5.390625 -10.4375 4.703125 -10.03125 C 4.023438 -9.632812 3.488281 -9.082031 3.09375 -8.375 C 2.707031 -7.675781 2.515625 -6.867188 2.515625 -5.953125 C 2.515625 -5.035156 2.707031 -4.222656 3.09375 -3.515625 C 3.488281 -2.816406 4.023438 -2.269531 4.703125 -1.875 C 5.390625 -1.476562 6.175781 -1.28125 7.0625 -1.28125 C 8.070312 -1.28125 8.96875 -1.539062 9.75 -2.0625 C 10.53125 -2.582031 11.078125 -3.289062 11.390625 -4.1875 L 12.96875 -4.1875 C 12.726562 -3.300781 12.320312 -2.53125 11.75 -1.875 C 11.175781 -1.21875 10.484375 -0.703125 9.671875 -0.328125 C 8.859375 0.0351562 7.972656 0.21875 7.015625 0.21875 Z M 7.015625 0.21875 "/></g></g></g><g fill="#ffffff" fill-opacity="1"><g transform="translate(250.849341, 270.358458)"><g><path d="M 0.296875 0 L 5.1875 -11.90625 L 6.578125 -11.90625 L 11.484375 0 L 9.90625 0 L 8.78125 -2.703125 L 2.984375 -2.703125 L 1.890625 0 Z M 3.5625 -4.09375 L 8.21875 -4.09375 L 5.890625 -9.8125 Z M 3.5625 -4.09375 "/></g></g></g><g fill="#ffffff" fill-opacity="1"><g transform="translate(268.581468, 270.358458)"><g><path d="M 1.734375 0 L 1.734375 -11.90625 L 6.28125 -11.90625 C 7.101562 -11.90625 7.820312 -11.75 8.4375 -11.4375 C 9.050781 -11.125 9.523438 -10.6875 9.859375 -10.125 C 10.203125 -9.5625 10.375 -8.878906 10.375 -8.078125 C 10.375 -7.117188 10.125 -6.320312 9.625 -5.6875 C 9.125 -5.0625 8.441406 -4.640625 7.578125 -4.421875 L 10.5625 0 L 8.765625 0 L 5.859375 -4.265625 L 3.234375 -4.265625 L 3.234375 0 Z M 3.234375 -5.703125 L 6.109375 -5.703125 C 6.984375 -5.703125 7.65625 -5.90625 8.125 -6.3125 C 8.601562 -6.726562 8.84375 -7.316406 8.84375 -8.078125 C 8.84375 -8.835938 8.601562 -9.425781 8.125 -9.84375 C 7.65625 -10.269531 6.984375 -10.484375 6.109375 -10.484375 L 3.234375 -10.484375 Z M 3.234375 -5.703125 "/></g></g></g><g fill="#ffffff" fill-opacity="1"><g transform="translate(286.126427, 270.358458)"><g><path d="M 1.734375 0 L 1.734375 -11.90625 L 3.234375 -11.90625 L 3.234375 0 Z M 1.734375 0 "/></g></g></g><g fill="#ffffff" fill-opacity="1"><g transform="translate(297.052318, 270.358458)"><g><path d="M 1.734375 0 L 1.734375 -11.90625 L 6.34375 -11.90625 C 7.488281 -11.90625 8.40625 -11.617188 9.09375 -11.046875 C 9.78125 -10.472656 10.125 -9.707031 10.125 -8.75 C 10.125 -8.164062 9.988281 -7.648438 9.71875 -7.203125 C 9.445312 -6.765625 9.066406 -6.421875 8.578125 -6.171875 C 9.191406 -5.921875 9.660156 -5.550781 9.984375 -5.0625 C 10.304688 -4.582031 10.46875 -4.003906 10.46875 -3.328125 C 10.46875 -2.296875 10.117188 -1.484375 9.421875 -0.890625 C 8.722656 -0.296875 7.769531 0 6.5625 0 Z M 3.234375 -1.390625 L 6.53125 -1.390625 C 7.300781 -1.390625 7.894531 -1.566406 8.3125 -1.921875 C 8.726562 -2.273438 8.9375 -2.769531 8.9375 -3.40625 C 8.9375 -4.039062 8.722656 -4.53125 8.296875 -4.875 C 7.878906 -5.21875 7.285156 -5.390625 6.515625 -5.390625 L 3.234375 -5.390625 Z M 3.234375 -6.75 L 6.3125 -6.75 C 7.050781 -6.75 7.613281 -6.910156 8 -7.234375 C 8.394531 -7.566406 8.59375 -8.03125 8.59375 -8.625 C 8.59375 -9.226562 8.394531 -9.691406 8 -10.015625 C 7.601562 -10.347656 7.039062 -10.515625 6.3125 -10.515625 L 3.234375 -10.515625 Z M 3.234375 -6.75 "/></g></g></g><g fill="#ffffff" fill-opacity="1"><g transform="translate(314.427115, 270.358458)"><g><path d="M 7.140625 0.21875 C 5.941406 0.21875 4.875 -0.0390625 3.9375 -0.5625 C 3.007812 -1.09375 2.285156 -1.820312 1.765625 -2.75 C 1.242188 -3.6875 0.984375 -4.753906 0.984375 -5.953125 C 0.984375 -7.171875 1.242188 -8.238281 1.765625 -9.15625 C 2.285156 -10.082031 3.007812 -10.804688 3.9375 -11.328125 C 4.875 -11.859375 5.941406 -12.125 7.140625 -12.125 C 8.359375 -12.125 9.425781 -11.859375 10.34375 -11.328125 C 11.269531 -10.804688 12 -10.082031 12.53125 -9.15625 C 13.0625 -8.238281 13.328125 -7.171875 13.328125 -5.953125 C 13.328125 -4.753906 13.0625 -3.6875 12.53125 -2.75 C 12 -1.820312 11.269531 -1.09375 10.34375 -0.5625 C 9.425781 -0.0390625 8.359375 0.21875 7.140625 0.21875 Z M 2.515625 -5.953125 C 2.515625 -5.035156 2.707031 -4.222656 3.09375 -3.515625 C 3.488281 -2.816406 4.035156 -2.269531 4.734375 -1.875 C 5.429688 -1.476562 6.234375 -1.28125 7.140625 -1.28125 C 8.066406 -1.28125 8.875 -1.476562 9.5625 -1.875 C 10.25 -2.269531 10.789062 -2.816406 11.1875 -3.515625 C 11.582031 -4.222656 11.78125 -5.035156 11.78125 -5.953125 C 11.78125 -6.878906 11.582031 -7.691406 11.1875 -8.390625 C 10.789062 -9.085938 10.25 -9.632812 9.5625 -10.03125 C 8.875 -10.4375 8.066406 -10.640625 7.140625 -10.640625 C 6.234375 -10.640625 5.429688 -10.4375 4.734375 -10.03125 C 4.035156 -9.632812 3.488281 -9.085938 3.09375 -8.390625 C 2.707031 -7.691406 2.515625 -6.878906 2.515625 -5.953125 Z M 2.515625 -5.953125 "/></g></g></g><g fill="#ffffff" fill-opacity="1"><g transform="translate(334.677548, 270.358458)"><g><path d="M 7.140625 0.21875 C 5.941406 0.21875 4.875 -0.0390625 3.9375 -0.5625 C 3.007812 -1.09375 2.285156 -1.820312 1.765625 -2.75 C 1.242188 -3.6875 0.984375 -4.753906 0.984375 -5.953125 C 0.984375 -7.171875 1.242188 -8.238281 1.765625 -9.15625 C 2.285156 -10.082031 3.007812 -10.804688 3.9375 -11.328125 C 4.875 -11.859375 5.941406 -12.125 7.140625 -12.125 C 8.359375 -12.125 9.425781 -11.859375 10.34375 -11.328125 C 11.269531 -10.804688 12 -10.082031 12.53125 -9.15625 C 13.0625 -8.238281 13.328125 -7.171875 13.328125 -5.953125 C 13.328125 -4.753906 13.0625 -3.6875 12.53125 -2.75 C 12 -1.820312 11.269531 -1.09375 10.34375 -0.5625 C 9.425781 -0.0390625 8.359375 0.21875 7.140625 0.21875 Z M 2.515625 -5.953125 C 2.515625 -5.035156 2.707031 -4.222656 3.09375 -3.515625 C 3.488281 -2.816406 4.035156 -2.269531 4.734375 -1.875 C 5.429688 -1.476562 6.234375 -1.28125 7.140625 -1.28125 C 8.066406 -1.28125 8.875 -1.476562 9.5625 -1.875 C 10.25 -2.269531 10.789062 -2.816406 11.1875 -3.515625 C 11.582031 -4.222656 11.78125 -5.035156 11.78125 -5.953125 C 11.78125 -6.878906 11.582031 -7.691406 11.1875 -8.390625 C 10.789062 -9.085938 10.25 -9.632812 9.5625 -10.03125 C 8.875 -10.4375 8.066406 -10.640625 7.140625 -10.640625 C 6.234375 -10.640625 5.429688 -10.4375 4.734375 -10.03125 C 4.035156 -9.632812 3.488281 -9.085938 3.09375 -8.390625 C 2.707031 -7.691406 2.515625 -6.878906 2.515625 -5.953125 Z M 2.515625 -5.953125 "/></g></g></g></svg>